<svg class="svg-icon" style="width: 1.05859375em; height: 1em;vertical-align: middle;fill: currentColor;overflow: hidden;" viewBox="0 0 1084 1024" version="1.1" xmlns="http://www.w3.org/2000/svg"><path d="M287.799247 398.293601h506.218319C763.181932 271.096612 650.117942 177.304893 513.927227 177.304893c-159.31744 0-287.799247 128.481807-287.799247 287.799248 0 66.81054 23.126725 129.766625 61.671267 178.589711V398.293601z" fill="#E9EAEB" /><path d="M349.470514 472.813049h-25.696361c-21.841907 0-38.544542-16.702635-38.544542-38.544542v385.44542c0 21.841907 16.702635 38.544542 38.544542 38.544542h25.696361v-385.44542z" fill="#E9EAEB" /><path d="M773.460477 228.697616h25.696361v77.089084h-25.696361zM823.761104 307.264241l33.40527-57.868206 22.253049 12.848181-33.40527 57.868206zM865.479147 341.247679l57.868206-33.40527 12.84818 22.253049-57.868206 33.40527zM889.094103 395.723965h64.240903v25.696361h-64.240903z" fill="#2A5082" /><path d="M253.109159 267.242158c-32.120452 0-57.816813-25.696361-57.816813-57.816813s25.696361-57.816813 57.816813-57.816813 57.816813 25.696361 57.816813 57.816813-26.981179 57.816813-57.816813 57.816813z m0-89.937265c-17.987453 0-32.120452 14.132999-32.120451 32.120452s14.132999 32.120452 32.120451 32.120452 32.120452-14.132999 32.120452-32.120452-15.417817-32.120452-32.120452-32.120452zM413.711418 241.545797h25.696361v77.089084h-25.696361z" fill="#BCC0C4" /><path d="M388.015056 267.242158h77.089085v25.696361h-77.089085zM156.747804 421.420326h25.696362v77.089084h-25.696362z" fill="#BCC0C4" /><path d="M131.051443 447.116688h77.089084v25.696361h-77.089084z" fill="#BCC0C4" /><path d="M156.747804 421.420326h25.696362v77.089084h-25.696362z" fill="#BCC0C4" /><path d="M131.051443 447.116688h77.089084v25.696361h-77.089084z" fill="#BCC0C4" /><path d="M285.229611 434.268507c0 21.841907 16.702635 38.544542 38.544542 38.544542h488.230866v-77.089084h-488.230866c-21.841907 0-38.544542 16.702635-38.544542 38.544542z" fill="#E9EAEB" /><path d="M824.853199 472.813049h-25.696361v-64.240903h-475.382685c-14.132999 0-25.696361 11.563363-25.696361 25.696361h-25.696362c0-28.265997 23.126725-51.392723 51.392723-51.392723h501.079046v89.937265z" fill="#2A5082" /><path d="M749.048934 472.813049L567.889586 291.653701 385.44542 472.813049" fill="#A3D4FF" /><path d="M394.439147 481.806775l-17.987453-17.987453 191.437892-190.153074L758.04266 463.819322l-17.987453 17.987453-172.165621-170.880803z" fill="#2A5082" /><path d="M657.826851 472.813049l-62.956086-62.956085c-17.987453 17.987453-35.974906 17.987453-53.962358 0l-62.956086 62.956085" fill="#E9EAEB" /><path d="M486.946048 481.806775l-17.987453-17.987453 71.949812-71.949811 8.993726 8.993726c6.42409 6.42409 12.848181 10.278545 17.987453 10.278545 5.139272 0 11.563363-3.854454 17.987453-10.278545l8.993726-8.993726 71.949812 71.949811-17.987453 17.987453-53.962359-53.962358c-16.702635 11.563363-35.974906 11.563363-52.67754 0l-55.247177 53.962358z" fill="#2A5082" /><path d="M889.094103 871.10665h-565.31995c-28.265997 0-51.392723-23.126725-51.392723-51.392723v-385.44542h25.696362c0 14.132999 11.563363 25.696361 25.696361 25.696361h565.31995v411.141782z m-591.016311-391.869511v340.476788c0 14.132999 11.563363 25.696361 25.696361 25.696362h539.623589v-359.749059h-539.623589c-10.278545 0-17.987453-2.569636-25.696361-6.424091z" fill="#2A5082" /><path d="M889.094103 729.776662H702.795483c-38.544542 0-70.664994-32.120452-70.664994-70.664993s32.120452-70.664994 70.664994-70.664994h186.29862c14.132999 0 25.696361 11.563363 25.696361 25.696361v89.937265c0 14.132999-11.563363 25.696361-25.696361 25.696361z" fill="#A3D4FF" /><path d="M889.094103 742.624843H702.795483c-46.25345 0-83.513174-37.259724-83.513174-83.513174s37.259724-83.513174 83.513174-83.513175h186.29862c21.841907 0 38.544542 16.702635 38.544542 38.544542v89.937265c0 21.841907-17.987453 38.544542-38.544542 38.544542z m-186.29862-141.329987c-32.120452 0-57.816813 25.696361-57.816813 57.816813s25.696361 57.816813 57.816813 57.816813h186.29862c7.708908 0 12.848181-5.139272 12.848181-12.848181v-89.937265c0-7.708908-5.139272-12.848181-12.848181-12.84818H702.795483z" fill="#2A5082" /><path d="M683.523212 659.111669c0-17.987453 14.132999-32.120452 32.120452-32.120452s32.120452 14.132999 32.120451 32.120452-14.132999 32.120452-32.120451 32.120451-32.120452-14.132999-32.120452-32.120451z" fill="#FFFFFF" /><path d="M715.643664 704.080301c-24.411543 0-44.968632-20.557089-44.968633-44.968632s20.557089-44.968632 44.968633-44.968633 44.968632 20.557089 44.968632 44.968633-20.557089 44.968632-44.968632 44.968632z m0-64.240903c-10.278545 0-19.272271 8.993726-19.272271 19.272271s8.993726 19.272271 19.272271 19.272271 19.272271-8.993726 19.272271-19.272271-8.993726-19.272271-19.272271-19.272271z" fill="#2A5082" /></svg>